<svg xmlns="http://www.w3.org/2000/svg" viewBox="0 0 363.13 534.01" class="_Header__logo_18fpl_27"><path fill="var(--full-logo-icon)" d="M144.49 72.22v269.21c0 41.39-34.24 75.25-75.58 73.34A72.46 72.46 0 0 1 .05 342.62V73.32c0-39 30.44-71.75 69.38-73.26a72.41 72.41 0 0 1 75.06 72.16ZM306.74 244.8v162.69H162.33V244.8a72.22 72.22 0 1 1 144.44 0ZM52.12 473.32v33.06H37.18V476.5c0-7.52-3.71-12.07-9.53-12.07-7.53 0-12.72 5.08-12.72 14.61v27.34H0v-79.55h14.93v35.69c3.39-7.63 9.54-11.13 17.27-11.13 12.82 0 19.92 8.8 19.92 21.93Zm7.31 5.83c0-16.31 9.54-27.76 24.9-27.76 7.3 0 14 3.29 16.63 8.8h.11v-7.63H116v53.82h-14.93v-8.27h-.11c-2.86 5.83-9.43 9.43-16.63 9.43-15.36 0-24.9-11.53-24.9-28.39Zm42.06.53v-.67c0-9.53-5.62-15.67-13.77-15.67-7.95 0-13.56 6.25-13.56 15.78 0 10.17 5.61 16.42 13.56 16.42 8.15.03 13.77-6.11 13.77-15.86Zm77.97-6.36v33.06h-14.93V476.5c0-7.52-3.71-12.07-9.53-12.07-7.53 0-12.72 5.08-12.72 14.61v27.34h-14.93v-53.82h14.93v10c3.39-7.63 9.54-11.13 17.27-11.13 12.82-.04 19.91 8.76 19.91 21.89Zm7.28 5.83c0-16.31 9.54-27.76 24.9-27.76 7.31 0 14.62 3.29 17.26 8.8h.11v-33.36h14.94v79.55h-14.9v-8.27h-.11c-2.75 5.83-10.06 9.43-17.26 9.43-15.36 0-24.94-11.53-24.94-28.39Zm14.73 0c0 10.17 5.61 16.42 13.56 16.42 8.15 0 13.77-6.14 13.77-15.89v-.67c0-9.53-5.62-15.67-13.77-15.67-7.91.03-13.52 6.28-13.52 15.81Zm105.27 32.3c0 13.56-11.15 22.56-26.62 22.56s-25.85-7.41-27.22-20.55h15.14c1.17 5.4 5.62 9.11 12 9.11 6.78 0 11.76-4.34 11.76-10.28v-18c-3.39 7.1-9.43 10.38-16.84 10.38-12.29 0-20.34-8.26-20.34-22.78v-29.33h14.94v26.91c0 7.63 3.6 12.18 9.53 12.18 7.52 0 12.71-5.19 12.71-14.62v-24.47h14.94Zm26-81.24h-8.06v22.27h-3.94v-22.27h-8.15v-3.41h20.15Zm30.41-3.41v25.68h-3.8v-19.4l-8.76 10.24h-1l-8.85-10.31v19.48h-3.8V426.8h3.42l9.69 11.79 9.78-11.79Z"></path></svg>
